<?xml version="1.0" encoding="utf-8"?>
<!-- Generator: Adobe Illustrator 24.1.2, SVG Export Plug-In . SVG Version: 6.00 Build 0)  -->
<svg version="1.1" xmlns="http://www.w3.org/2000/svg" xmlns:xlink="http://www.w3.org/1999/xlink" x="0px" y="0px"
	 viewBox="0 0 396.5 862.5" style="enable-background:new 0 0 396.5 862.5;" xml:space="preserve">
<style type="text/css">
	.st0{fill:#C79D44;}
	.st1{fill:#F0DED0;}
	.st2{opacity:0.399;enable-background:new    ;}
	.st3{fill:#E8BC99;}
	.st4{fill:#006286;}
	.st5{fill:#FCB735;}
	.st6{fill:#FFFFFF;}
	.st7{fill:none;stroke:#252535;stroke-width:4;stroke-miterlimit:10;}
	.st8{fill:#D8D8D8;}
	.st9{fill:#2F2F3D;}
	.st10{opacity:0.198;enable-background:new    ;}
	.st11{fill:#EFEFEF;}
	.st12{stroke:#252535;stroke-width:4;stroke-miterlimit:10;}
	.st13{fill:#FDDFC8;}
	.st14{fill:#163BD0;}
	.st15{opacity:0.201;enable-background:new    ;}
	.st16{opacity:0.201;fill:none;stroke:#000000;stroke-width:5;stroke-miterlimit:10;enable-background:new    ;}
	.st17{fill:none;}
	.st18{opacity:0;fill:#FFFFFF;}
</style>
<g id="Layer_1">
	<g id="Person_Man_2">
		<g id="Group_30" transform="translate(160.864)">
			<path id="Fill_1" class="st0" d="M14.8,44.9c0,14.6,9.4,26.4,21,26.4s21-11.8,21-26.4s-9.4-26.4-21-26.4S14.8,30.3,14.8,44.9"/>
			<g id="Face_color" transform="translate(16.846 30.697)">
				<path id="Face" class="st1" d="M47.6,119V92.3c0,0-23.7,6.2-36.5-3.7c0,0-16.9-50.9-5.4-78.4l0.2-1.1L83.6,0L88,44.7
					c2.6-7.7,24.2-16.5,29.9-5.4c12.2,24-31.5,40.2-31.5,40.2l4.4,39.9"/>
			</g>
			<path id="Fill_5" class="st2" d="M64.3,122.3l24.8-5.3l-24.7,16.7L64.3,122.3z"/>
			<path id="Fill_7" class="st3" d="M45.5,74.8l-8.6,21L47.2,96L45.5,74.8z"/>
			<path id="Fill_9" class="st4" d="M54.6,75.6c-0.6,2.8,1.2,5.6,4.1,6.1c2.8,0.6,5.6-1.2,6.1-4.1c0-0.1,0-0.1,0-0.2
				c0.5-2.8-0.9-3.2-3.7-3.7s-6-0.1-6.5,2.7"/>
			<path id="Fill_11" class="st4" d="M25.8,75.6c-0.6,2.8,1.2,5.6,4.1,6.1s5.6-1.2,6.1-4.1c0-0.1,0-0.1,0-0.2
				c0.5-2.8-1.4-3.1-4.3-3.7S26.3,72.8,25.8,75.6"/>
			<path id="Hair" class="st5" d="M99,83c7.4-12.6,18-16.5,22.8-17.6c2-6.1,3.5-12.4,4.4-18.8C129,28.4,115.7,11.7,105,7
				C94.2,2.1,75.5-4.6,48.2,4.5C29.8,10.6,18.1-4,7.3,2.2C-11.2,12.9,6,59.8,52.8,47.9c33.5-8.5,34.4-6.4,34.7-0.2
				C88.4,67.7,91.5,79.5,99,83L99,83z"/>
			<g id="Group_21" transform="translate(49.329 96.768)">
				<path id="Fill_18" class="st6" d="M10.4,0C8.2,3.7,4.3,5.9,0,5.9"/>
				<path id="Stroke_20" class="st7" d="M10.4,0C8.2,3.7,4.3,5.9,0,5.9"/>
			</g>
		</g>
		<g id="Group_23" transform="translate(119.996 322.371)">
			<g id="Shoes" transform="translate(0 468.913)">
				<path id="Shoes-2" class="st8" d="M111.2,71.2L106.5,0L74.4,16.2l0.3,24.9c0,0-55.8,8.8-74.7,30.1H111.2z M260.2,71.2l-5.6-30.7
					l-16.8-9.4l-20.9-17l0.3,28c0,0-23.5,3.1-33.1,29.2h76.1V71.2z"/>
			</g>
			<g id="Leg_skin" transform="translate(74.448 473.342)">
				<path id="Skin" class="st1" d="M180.2,36.1L174.5,0l-32.1,9.7l0.3,28L180.2,36.1z M34.7,35.1l-2.6-33L0,11.8l0.3,24.9L34.7,35.1
					z"/>
			</g>
			<g id="Pants" transform="translate(55.38 0)">
				<path id="Pants-2" class="st9" d="M14.5,476.9l0.7,23.1h42.3l-0.7-23.2c4.9-2,8.1-6.6,8.2-11.9l6.8-346.3l73.6,349.6
					c1,4.8,4.6,8.7,9.3,10.1l2.8,21.6H202l-3.8-23.9c3.9-3,5.8-7.8,5.1-12.6L135.5,0.2H74.2V0H0l4.4,464.3
					C4.5,470.3,8.6,475.5,14.5,476.9L14.5,476.9z"/>
			</g>
			<path id="Fill_15" class="st10" d="M127.6,124.1l-13-57.6l9.8,174.7L127.6,124.1z"/>
			<g id="Pants_line" transform="translate(167.883 0.614)">
				<path id="Pants_line-2" class="st11" d="M7.1,0L0,1.2l77.5,472.2l7.1-1.2L7.1,0z"/>
			</g>
		</g>
		<g id="Group_12" transform="translate(-1791.388 1030.531)">
			<path id="Stroke_22" class="st12" d="M2014.4-852.5c0,6.6,5.4,11.9,11.9,11.9c6.6,0,11.9-5.4,11.9-11.9c0-6.6-5.3-11.9-11.9-11.9
				C2019.7-864.4,2014.4-859.1,2014.4-852.5L2014.4-852.5z"/>
			<path id="Stroke_24" class="st12" d="M1984.5-852.5c0,6.6,5.4,11.9,11.9,11.9c6.6,0,11.9-5.4,11.9-11.9c0-6.6-5.3-11.9-11.9-11.9
				S1984.5-859.1,1984.5-852.5L1984.5-852.5z"/>
			<path id="Stroke_28" class="st7" d="M2038.2-852.5h29.4"/>
		</g>
		<g id="Group_18" transform="translate(0 99.849)">
			<g id="Skin_color" transform="translate(0 0)">
				<path id="Skin-2" class="st13" d="M396.3,182.3c0.6-23.1-27-64.5-27-64.5L321,139.3l19.9,42.4L286.1,258l22.5,18.3
					C308.7,276.3,395.6,209.5,396.3,182.3z M237.2,65.5c28.3-1.7,37.7-21.8,37.7-21.8s-17.3,0-29.7-0.1S217,48.8,217,48.8
					s-7.5,16.8,16.7,16.8C234.8,65.6,236,65.5,237.2,65.5L237.2,65.5z"/>
			</g>
			<g id="Sweater_color" transform="translate(33.007 43.633)">
				<path id="Sweater_2_" class="st14" d="M138,112.5l-11,55.7c-1.8,9.6,6.7,13.2,14.2,12.9h118.4l-13.5,18.1l40.5,35.3
					c0,0,74.4-54.5,76.7-97.2c1.5-27.2-22.4-66.1-22.4-66.1S311,23.4,276.4,7.3c-7.1-3.3-24.3-6.1-34.7-7.2c-3.2-0.3-1.3,0.9-2.4,3
					c-1.1,2.2-4.6,5.5-7,7.9c-5,5.1-14.9,8.9-20.2,9.7c-4.1,0.6-11.9,1.5-15.7,1s-7.9-2.2-9-3.2c-1.5-1.1-2.7-2.6-3.6-4.2
					c-0.8-1.9-0.8-1.4-0.8-3.2c-0.1-0.8,0-1.6,0.3-2.4c0.2-0.9,0.2-1.4,0.3-1.8c0.5-2,0.3-1.7,0.3-1.7c-20.4,6.2-30.7,8.4-38.2,17.4
					"/>
			</g>
			<path id="Fill_9-2" class="st15" d="M171.2,156.2l6.8-26.8L159.7,166L171.2,156.2z"/>
			<path id="Stroke_16" class="st16" d="M297.7,218.3l31.7-44.9l-38.2-58"/>
		</g>
		<rect x="0.8" y="90.4" class="st17" width="204.2" height="194.8"/>
		<path class="st14" d="M155.8,181.7c0,0-28.5,20.7-37.3,21.4c-8.8,0.8,9.6,77.9,27,70.2c0,0,20.7-5.4,34.9-30.7s4.4-43.4,4.4-43.4
			L155.8,181.7"/>
	</g>
	<g id="Layer_4">
	</g>
	<g id="Layer_3">
		<path class="st14" d="M185.8,160l-30,21.7c0,0,9.4,29.4,25.2,26.1s24-11.2,24-15.1S185.8,160,185.8,160z"/>
	</g>
</g>
<g id="Layer_2">
	<path class="st13" d="M75.4,160.1l0.2-8.8c-0.2-4.2-0.7-8.5-1.3-12.7c-1.1-6.6-6-14.2-1.6-26s-6.9-3.3-9.2,2.3
		c-2,4.7-0.4,14.4-2.9,18c-1.4-0.7-2.7-1.6-3.8-2.6L30.5,99.1c-0.9-1-2.3-1.3-3.5-0.6l-1.3,0.8c-1.3,0.7-1.7,2.4-1,3.7
		c0,0.1,0.1,0.2,0.2,0.2c5.2,6.9,21.1,27.2,20.7,27.4l-0.6,0.8l-30.6-29.6c-1-1-2.5-1.1-3.6-0.3l-1.7,1.3c-1.2,0.9-1.4,2.5-0.6,3.7
		c0,0.1,0.1,0.1,0.1,0.1c6.1,7.3,29,30.2,28.6,30.4l-0.8,0.9L8.1,115.1c-1-1-2.7-1.1-3.7-0.1L3,116.1c-1.1,1-1.2,2.7-0.3,3.8l0,0
		L29.5,143l-0.7,1.2l-23-14.7c-1.1-0.9-2.6-0.8-3.6,0.1l-0.6,0.6c-1.1,1-1.1,2.7-0.1,3.8c3.4,3.7,13.9,9.8,22.2,17.4
		c6.5,5.9,9.7,11.7,18.7,18.3c3.2,2.3,6.7,4.2,10.3,5.7L75.4,160.1z"/>
	<path class="st14" d="M35.1,186.8l50.2-33.7l70.5,93.3c0,0,14.3,30-30.8,33c-4.8,0.3-9.7-0.3-14.2-2.1
		C95.8,271.6,62.5,251.8,35.1,186.8z"/>
	<circle class="st18" cx="75.8" cy="181.7" r="112.9"/>
</g>
</svg>
