<svg id="e3hoklu3hkh11" xmlns="http://www.w3.org/2000/svg" xmlns:xlink="http://www.w3.org/1999/xlink" viewBox="0 0 396.500000 862.500000" shape-rendering="geometricPrecision" text-rendering="geometricPrecision"><g id="e3hoklu3hkh12" transform="matrix(1 0 0 1 0.12523191999995 0.00610732999999)"><g id="e3hoklu3hkh13"><g id="e3hoklu3hkh14" transform="matrix(1 0 0 1 160.86400000000000 0)"><path id="e3hoklu3hkh15" d="M14.800000,44.900000C14.800000,59.500000,24.200000,71.300000,35.800000,71.300000C47.400000,71.300000,56.800000,59.500000,56.800000,44.900000C56.800000,30.300000,47.400000,18.500000,35.800000,18.500000C24.200000,18.500000,14.800000,30.300000,14.800000,44.900000" fill="rgb(199,157,68)" stroke="none" stroke-width="1"/><g id="e3hoklu3hkh16" transform="matrix(1 0 0 1 16.84600000000000 30.69700000000000)"><path id="e3hoklu3hkh17" d="M47.600000,119L47.600000,92.300000C47.600000,92.300000,23.900000,98.500000,11.100000,88.600000C11.100000,88.600000,-5.800000,37.700000,5.700000,10.200000L5.900000,9.100000L83.600000,0L88,44.700000C90.600000,37,112.200000,28.200000,117.900000,39.300000C130.100000,63.300000,86.400000,79.500000,86.400000,79.500000L90.800000,119.400000" fill="rgb(240,222,208)" stroke="none" stroke-width="1"/></g><path id="e3hoklu3hkh18" d="M64.300000,122.300000L89.100000,117L64.400000,133.700000L64.300000,122.300000Z" opacity="0.399" fill="rgb(0,0,0)" stroke="none" stroke-width="1"/><path id="e3hoklu3hkh19" d="M45.500000,74.800000L36.900000,95.800000L47.200000,96L45.500000,74.800000Z" fill="rgb(232,188,153)" stroke="none" stroke-width="1"/><path id="e3hoklu3hkh110" d="M54.600000,75.600000C54,78.400000,55.800000,81.200000,58.700000,81.700000C61.500000,82.300000,64.300000,80.500000,64.800000,77.600000C64.800000,77.500000,64.800000,77.500000,64.800000,77.400000C65.300000,74.600000,63.900000,74.200000,61.100000,73.700000C58.300000,73.200000,55.100000,73.600000,54.600000,76.400000" transform="matrix(1 0 0 1 0.03666181000000 -0.21703140000000)" fill="rgb(0,98,134)" stroke="none" stroke-width="1"/><path id="e3hoklu3hkh111" d="M25.800000,75.600000C25.200000,78.400000,27,81.200000,29.900000,81.700000C32.800000,82.200000,35.500000,80.500000,36,77.600000C36,77.500000,36,77.500000,36,77.400000C36.500000,74.600000,34.600000,74.300000,31.700000,73.700000C28.800000,73.100000,26.300000,72.800000,25.800000,75.600000" fill="rgb(0,98,134)" stroke="none" stroke-width="1"/><path id="e3hoklu3hkh112" d="M99,83C106.400000,70.400000,117,66.500000,121.800000,65.400000C123.800000,59.300000,125.300000,53,126.200000,46.600000C129,28.400000,115.700000,11.700000,105,7C94.200000,2.100000,75.500000,-4.600000,48.200000,4.500000C29.800000,10.600000,18.100000,-4,7.300000,2.200000C-11.200000,12.900000,6,59.800000,52.800000,47.900000C86.300000,39.400000,87.200000,41.500000,87.500000,47.700000C88.400000,67.700000,91.500000,79.500000,99,83L99,83Z" fill="rgb(252,183,53)" stroke="none" stroke-width="1"/><g id="e3hoklu3hkh113" transform="matrix(1 0 0 1 49.32900000000000 96.76800000000000)"><path id="e3hoklu3hkh114" d="M10.400000,0C8.200000,3.700000,4.300000,5.900000,0,5.900000" fill="rgb(255,255,255)" stroke="none" stroke-width="1"/><path id="e3hoklu3hkh115" d="M10.400000,0C8.200000,3.700000,4.300000,5.900000,0,5.900000" fill="none" stroke="rgb(37,37,53)" stroke-width="4" stroke-miterlimit="10"/></g></g><g id="e3hoklu3hkh116" transform="matrix(1 0 0 1 119.99600000000000 322.37099999999998)"><g id="e3hoklu3hkh117" transform="matrix(1 0 0 1 0 468.91300000000001)"><path id="e3hoklu3hkh118" d="M111.200000,71.200000L106.500000,0L74.400000,16.200000L74.700000,41.100000C74.700000,41.100000,18.900000,49.900000,0,71.200000L111.200000,71.200000ZM260.200000,71.200000L254.600000,40.500000L237.800000,31.100000L216.900000,14.100000L217.200000,42.100000C217.200000,42.100000,193.700000,45.200000,184.100000,71.300000L260.200000,71.300000L260.200000,71.200000Z" fill="rgb(216,216,216)" stroke="none" stroke-width="1"/></g><g id="e3hoklu3hkh119" transform="matrix(1 0 0 1 74.44799999999999 473.34199999999998)"><path id="e3hoklu3hkh120" d="M180.200000,36.100000L174.500000,0L142.400000,9.700000L142.700000,37.700000L180.200000,36.100000ZM34.700000,35.100000L32.100000,2.100000L0,11.800000L0.300000,36.700000L34.700000,35.100000Z" fill="rgb(240,222,208)" stroke="none" stroke-width="1"/></g><g id="e3hoklu3hkh121" transform="matrix(1 0 0 1 55.38000000000000 0)"><path id="e3hoklu3hkh122" d="M14.500000,476.900000L15.200000,500L57.500000,500L56.800000,476.800000C61.700000,474.800000,64.900000,470.200000,65,464.900000L71.800000,118.600000L145.400000,468.200000C146.400000,473,150,476.900000,154.700000,478.300000L157.500000,499.900000L202,499.900000L198.200000,476C202.100000,473,204,468.200000,203.300000,463.400000L135.500000,0.200000L74.200000,0.200000L74.200000,0L0,0L4.400000,464.300000C4.500000,470.300000,8.600000,475.500000,14.500000,476.900000L14.500000,476.900000Z" fill="rgb(47,47,61)" stroke="none" stroke-width="1"/></g><path id="e3hoklu3hkh123" d="M127.600000,124.100000L114.600000,66.500000L124.400000,241.200000L127.600000,124.100000Z" opacity="0.198" fill="rgb(0,0,0)" stroke="none" stroke-width="1"/><g id="e3hoklu3hkh124" transform="matrix(1 0 0 1 167.88300000000001 0.61400000000000)"><path id="e3hoklu3hkh125" d="M7.100000,0L0,1.200000L77.500000,473.400000L84.600000,472.200000L7.100000,0Z" fill="rgb(239,239,239)" stroke="none" stroke-width="1"/></g></g><g id="e3hoklu3hkh126" transform="matrix(1 0 0 1 0 99.84900000000000)"><g id="e3hoklu3hkh127"><path id="e3hoklu3hkh128" d="M396.300000,182.300000C396.900000,159.200000,369.300000,117.800000,369.300000,117.800000L321,139.300000L340.900000,181.700000L286.100000,258L308.600000,276.300000C308.700000,276.300000,395.600000,209.500000,396.300000,182.300000ZM237.200000,65.500000C265.500000,63.800000,274.900000,43.700000,274.900000,43.700000C274.900000,43.700000,257.600000,43.700000,245.200000,43.600000C232.800000,43.500000,217,48.800000,217,48.800000C217,48.800000,209.500000,65.600000,233.700000,65.600000C234.800000,65.600000,236,65.500000,237.200000,65.500000L237.200000,65.500000Z" fill="rgb(253,223,200)" stroke="none" stroke-width="1"/></g><g id="e3hoklu3hkh129" transform="matrix(1 0 0 1 33.00700000000000 43.63300000000000)"><path id="e3hoklu3hkh130" d="M138,112.500000L127,168.200000C125.200000,177.800000,133.700000,181.400000,141.200000,181.100000L259.600000,181.100000L246.100000,199.200000L286.600000,234.500000C286.600000,234.500000,361,180,363.300000,137.300000C364.800000,110.100000,340.900000,71.200000,340.900000,71.200000C340.900000,71.200000,311,23.400000,276.400000,7.300000C269.300000,4,252.100000,1.200000,241.700000,0.100000C238.500000,-0.200000,240.400000,1,239.300000,3.100000C238.200000,5.300000,234.700000,8.600000,232.300000,11C227.300000,16.100000,217.400000,19.900000,212.100000,20.700000C208,21.300000,200.200000,22.200000,196.400000,21.700000C192.600000,21.200000,188.500000,19.500000,187.400000,18.500000C185.900000,17.400000,184.700000,15.900000,183.800000,14.300000C183,12.400000,183,12.900000,183,11.100000C182.900000,10.300000,183,9.500000,183.300000,8.700000C183.500000,7.800000,183.500000,7.300000,183.600000,6.900000C184.100000,4.900000,183.900000,5.200000,183.900000,5.200000C163.500000,11.400000,153.200000,13.600000,145.700000,22.600000" fill="rgb(126,152,255)" stroke="none" stroke-width="1"/></g><path id="e3hoklu3hkh131" d="M171.200000,156.200000L178,129.400000L159.700000,166L171.200000,156.200000Z" opacity="0.201" fill="rgb(0,0,0)" stroke="none" stroke-width="1"/><path id="e3hoklu3hkh132" d="M297.700000,218.300000L329.400000,173.400000L291.200000,115.400000" opacity="0.201" fill="none" stroke="rgb(0,0,0)" stroke-width="5" stroke-miterlimit="10"/></g><rect id="e3hoklu3hkh133" width="204.200000" height="194.800000" rx="0" ry="0" transform="matrix(1 0 0 1 0.80000000000000 90.40000000000001)" fill="none" stroke="none" stroke-width="1"/><path id="e3hoklu3hkh134" d="M155.800000,181.700000C155.800000,181.700000,127.300000,202.400000,118.500000,203.100000C109.700000,203.900000,128.100000,281,145.500000,273.300000C145.500000,273.300000,166.200000,267.900000,180.400000,242.600000C194.600000,217.300000,184.800000,199.200000,184.800000,199.200000L155.800000,181.700000" transform="matrix(1 0 0 1 0.71766279000002 -0.52126296500001)" fill="rgb(126,152,255)" stroke="none" stroke-width="1"/><g id="e3hoklu3hkh135" transform="matrix(1 0 0 1 -1805.66456451000022 929.94858428999999)"><path id="e3hoklu3hkh136" d="M2014.400000,-852.500000C2014.400000,-845.900000,2019.800000,-840.600000,2026.300000,-840.600000C2032.900000,-840.600000,2038.200000,-846,2038.200000,-852.500000C2038.200000,-859.100000,2032.900000,-864.400000,2026.300000,-864.400000C2019.700000,-864.400000,2014.400000,-859.100000,2014.400000,-852.500000L2014.400000,-852.500000Z" transform="matrix(1 0 0 1 0 0.09430428499999)" fill="rgb(0,0,0)" fill-opacity="0.59" stroke="rgb(37,37,53)" stroke-width="4" stroke-miterlimit="10"/><path id="e3hoklu3hkh137" d="M1984.500000,-852.500000C1984.500000,-845.900000,1989.900000,-840.600000,1996.400000,-840.600000C2003,-840.600000,2008.300000,-846,2008.300000,-852.500000C2008.300000,-859.100000,2003,-864.400000,1996.400000,-864.400000C1989.800000,-864.400000,1984.500000,-859.100000,1984.500000,-852.500000L1984.500000,-852.500000Z" fill="rgb(0,0,0)" fill-opacity="0.59" stroke="rgb(37,37,53)" stroke-width="4" stroke-miterlimit="10"/><path id="e3hoklu3hkh138" d="M2038.200000,-852.500000L2067.600000,-852.500000" fill="none" stroke="rgb(37,37,53)" stroke-width="4" stroke-miterlimit="10"/></g></g><g id="e3hoklu3hkh139"><path id="e3hoklu3hkh140" d="M185.800000,160L155.800000,181.700000C155.800000,181.700000,165.200000,211.100000,181,207.800000C196.800000,204.500000,205,196.600000,205,192.700000C205,188.800000,185.800000,160,185.800000,160Z" fill="rgb(126,152,255)" stroke="none" stroke-width="1"/></g></g><g id="e3hoklu3hkh141" transform="matrix(1 0 0 1 -2.53582640627081 2.10435300542355)"><path id="e3hoklu3hkh142" d="M75.400000,160.100000L75.600000,151.300000C75.400000,147.100000,74.900000,142.800000,74.300000,138.600000C73.200000,132,68.300000,124.400000,72.700000,112.600000C77.100000,100.800000,65.800000,109.300000,63.500000,114.900000C61.500000,119.600000,63.100000,129.300000,60.600000,132.900000C59.200000,132.200000,57.900000,131.300000,56.800000,130.300000L30.500000,99.100000C29.600000,98.100000,28.200000,97.800000,27,98.500000L25.700000,99.300000C24.400000,100,24,101.700000,24.700000,103C24.700000,103.100000,24.800000,103.200000,24.900000,103.200000C30.100000,110.100000,46,130.400000,45.600000,130.600000L45,131.400000L14.400000,101.800000C13.400000,100.800000,11.900000,100.700000,10.800000,101.500000L9.100000,102.800000C7.900000,103.700000,7.700000,105.300000,8.500000,106.500000C8.500000,106.600000,8.600000,106.600000,8.600000,106.600000C14.700000,113.900000,37.600000,136.800000,37.200000,137L36.400000,137.900000L8.100000,115.100000C7.100000,114.100000,5.400000,114,4.400000,115L3,116.100000C1.900000,117.100000,1.800000,118.800000,2.700000,119.900000L2.700000,119.900000L29.500000,143L28.800000,144.200000L5.800000,129.500000C4.700000,128.600000,3.200000,128.700000,2.200000,129.600000L1.600000,130.200000C0.500000,131.200000,0.500000,132.900000,1.500000,134C4.900000,137.700000,15.400000,143.800000,23.700000,151.400000C30.200000,157.300000,33.400000,163.100000,42.400000,169.700000C45.600000,172,49.100000,173.900000,52.700000,175.400000L75.400000,160.100000Z" fill="rgb(253,223,200)" stroke="none" stroke-width="1"/><path id="e3hoklu3hkh143" d="M35.100000,186.800000L85.300000,153.100000L155.800000,246.400000C155.800000,246.400000,170.100000,276.400000,125,279.400000C120.200000,279.700000,115.300000,279.100000,110.800000,277.300000C95.800000,271.600000,62.500000,251.800000,35.100000,186.800000Z" fill="rgb(126,152,255)" stroke="none" stroke-width="1"/></g><script><![CDATA[!function(t,n){"object"==typeof exports&&"undefined"!=typeof module?module.exports=n():"function"==typeof define&&define.amd?define(n):(t=t||self).__SVGATOR_PLAYER__=n()}(this,(function(){"use strict";function t(n){return(t="function"==typeof Symbol&&"symbol"==typeof Symbol.iterator?function(t){return typeof t}:function(t){return t&&"function"==typeof Symbol&&t.constructor===Symbol&&t!==Symbol.prototype?"symbol":typeof t})(n)}function n(t,n){if(!(t instanceof n))throw new TypeError("Cannot call a class as a function")}function r(t,n){for(var r=0;r<n.length;r++){var e=n[r];e.enumerable=e.enumerable||!1,e.configurable=!0,"value"in e&&(e.writable=!0),Object.defineProperty(t,e.key,e)}}function e(t,n,e){return n&&r(t.prototype,n),e&&r(t,e),t}var i=1e-5,u=Math.abs;function o(t){return t}function a(t,n,r){var e=1-r;return 3*r*e*(t*e+n*r)+r*r*r}function l(){var t=arguments.length>0&&void 0!==arguments[0]?arguments[0]:0,n=arguments.length>1&&void 0!==arguments[1]?arguments[1]:0,r=arguments.length>2&&void 0!==arguments[2]?arguments[2]:1,e=arguments.length>3&&void 0!==arguments[3]?arguments[3]:1;return t<0||t>1||r<0||r>1?null:u(t-n)<=i&&u(r-e)<=i?o:function(o){if(o<=0)return t>0?o*n/t:0===n&&r>0?o*e/r:0;if(o>=1)return r<1?1+(o-1)*(e-1)/(r-1):1===r&&t<1?1+(o-1)*(n-1)/(t-1):1;for(var l,f=0,s=1;f<s;){var c=a(t,r,l=(f+s)/2);if(u(o-c)<i)break;c<o?f=l:s=l}return a(n,e,l)}}function f(){return 1}function s(t){return 1===t?1:0}function c(){var t=arguments.length>0&&void 0!==arguments[0]?arguments[0]:1,n=arguments.length>1&&void 0!==arguments[1]?arguments[1]:0;if(1===t){if(0===n)return s;if(1===n)return f}var r=1/t;return function(t){return t>=1?1:(t+=n*r)-t%r}}function v(t){var n=arguments.length>1&&void 0!==arguments[1]?arguments[1]:2;if(Number.isInteger(t))return t;var r=Math.pow(10,n);return Math.round(t*r)/r}var h=Math.PI/180;function y(t,n,r){return t>=.5?r:n}function d(t,n,r){return 0===t||n===r?n:t*(r-n)+n}function g(t,n,r){var e=d(t,n,r);return e<=0?0:e}function m(t,n,r){return 0===t?n:1===t?r:{x:d(t,n.x,r.x),y:d(t,n.y,r.y)}}function p(t,n,r){return 0===t?n:1===t?r:{x:g(t,n.x,r.x),y:g(t,n.y,r.y)}}function b(t,n,r){var e=function(t,n,r){return Math.round(d(t,n,r))}(t,n,r);return e<=0?0:e>=255?255:e}function w(t,n,r){return 0===t?n:1===t?r:{r:b(t,n.r,r.r),g:b(t,n.g,r.g),b:b(t,n.b,r.b),a:d(t,null==n.a?1:n.a,null==r.a?1:r.a)}}function A(t,n,r){if(0===t)return n;if(1===t)return r;var e=n.length;if(e!==r.length)return y(t,n,r);for(var i=[],u=0;u<e;u++)i.push(w(t,n[u],r[u]));return i}function x(t,n,r){var e=n.length;if(e!==r.length)return y(t,n,r);for(var i=new Array(e),u=0;u<e;u++)i[u]=d(t,n[u],r[u]);return i}function k(t,n){for(var r=[],e=0;e<t;e++)r.push(n);return r}function S(t,n){if(--n<=0)return t;var r=(t=Object.assign([],t)).length;do{for(var e=0;e<r;e++)t.push(t[e])}while(--n>0);return t}var _=6,M=/\.0+$/g;function I(t){return Number.isInteger(t)?t+"":t.toFixed(_).replace(M,"")}function E(t){var n=arguments.length>1&&void 0!==arguments[1]?arguments[1]:" ";return t&&t.length?t.map(I).join(n):""}function F(t){return I(t.x)+","+I(t.y)}function B(t){return t?null==t.a||t.a>=1?"rgb("+t.r+","+t.g+","+t.b+")":"rgba("+t.r+","+t.g+","+t.b+","+t.a+")":"transparent"}var j={f:null,i:p,u:function(t,n){return function(r){var e=n(r);t.setAttribute("rx",I(e.x)),t.setAttribute("ry",I(e.y))}}},q={f:null,i:function(t,n,r){return 0===t?n:1===t?r:{width:g(t,n.width,r.width),height:g(t,n.height,r.height)}},u:function(t,n){return function(r){var e=n(r);t.setAttribute("width",I(e.width)),t.setAttribute("height",I(e.height))}}},P=Math.sin,O=Math.cos,z=Math.acos,L=Math.asin,C=Math.tan,R=Math.atan2,T=Math.PI/180,V=180/Math.PI,D=Math.sqrt,N=function(){function t(){var r=arguments.length>0&&void 0!==arguments[0]?arguments[0]:1,e=arguments.length>1&&void 0!==arguments[1]?arguments[1]:0,i=arguments.length>2&&void 0!==arguments[2]?arguments[2]:0,u=arguments.length>3&&void 0!==arguments[3]?arguments[3]:1,o=arguments.length>4&&void 0!==arguments[4]?arguments[4]:0,a=arguments.length>5&&void 0!==arguments[5]?arguments[5]:0;n(this,t),this.m=[r,e,i,u,o,a],this.i=null,this.w=null,this.s=null}return e(t,[{key:"point",value:function(t,n){var r=this.m;return{x:r[0]*t+r[2]*n+r[4],y:r[1]*t+r[3]*n+r[5]}}},{key:"translateSelf",value:function(){var t=arguments.length>0&&void 0!==arguments[0]?arguments[0]:0,n=arguments.length>1&&void 0!==arguments[1]?arguments[1]:0;if(!t&&!n)return this;var r=this.m;return r[4]+=r[0]*t+r[2]*n,r[5]+=r[1]*t+r[3]*n,this.w=this.s=this.i=null,this}},{key:"rotateSelf",value:function(){var t=arguments.length>0&&void 0!==arguments[0]?arguments[0]:0;if(t%=360){var n=P(t*=T),r=O(t),e=this.m,i=e[0],u=e[1];e[0]=i*r+e[2]*n,e[1]=u*r+e[3]*n,e[2]=e[2]*r-i*n,e[3]=e[3]*r-u*n,this.w=this.s=this.i=null}return this}},{key:"scaleSelf",value:function(){var t=arguments.length>0&&void 0!==arguments[0]?arguments[0]:1,n=arguments.length>1&&void 0!==arguments[1]?arguments[1]:1;if(1!==t||1!==n){var r=this.m;r[0]*=t,r[1]*=t,r[2]*=n,r[3]*=n,this.w=this.s=this.i=null}return this}},{key:"skewSelf",value:function(t,n){if(n%=360,(t%=360)||n){var r=this.m,e=r[0],i=r[1],u=r[2],o=r[3];t&&(t=C(t*T),r[2]+=e*t,r[3]+=i*t),n&&(n=C(n*T),r[0]+=u*n,r[1]+=o*n),this.w=this.s=this.i=null}return this}},{key:"resetSelf",value:function(){var t=arguments.length>0&&void 0!==arguments[0]?arguments[0]:1,n=arguments.length>1&&void 0!==arguments[1]?arguments[1]:0,r=arguments.length>2&&void 0!==arguments[2]?arguments[2]:0,e=arguments.length>3&&void 0!==arguments[3]?arguments[3]:1,i=arguments.length>4&&void 0!==arguments[4]?arguments[4]:0,u=arguments.length>5&&void 0!==arguments[5]?arguments[5]:0,o=this.m;return o[0]=t,o[1]=n,o[2]=r,o[3]=e,o[4]=i,o[5]=u,this.w=this.s=this.i=null,this}},{key:"recomposeSelf",value:function(){var t=arguments.length>0&&void 0!==arguments[0]?arguments[0]:null,n=arguments.length>1&&void 0!==arguments[1]?arguments[1]:null,r=arguments.length>2&&void 0!==arguments[2]?arguments[2]:null,e=arguments.length>3&&void 0!==arguments[3]?arguments[3]:null,i=arguments.length>4&&void 0!==arguments[4]?arguments[4]:null;return this.isIdentity||this.resetSelf(),t&&(t.x||t.y)&&this.translateSelf(t.x,t.y),n&&this.rotateSelf(n),r&&(r.x&&this.skewSelf(r.x,0),r.y&&this.skewSelf(0,r.y)),!e||1===e.x&&1===e.y||this.scaleSelf(e.x,e.y),i&&(i.x||i.y)&&this.translateSelf(i.x,i.y),this}},{key:"decompose",value:function(){var t=arguments.length>0&&void 0!==arguments[0]?arguments[0]:0,n=arguments.length>1&&void 0!==arguments[1]?arguments[1]:0,r=this.m,e=r[0]*r[0]+r[1]*r[1],i=[[r[0],r[1]],[r[2],r[3]]],u=D(e);if(0===u)return{origin:{x:r[4],y:r[5]},translate:{x:t,y:n},scale:{x:0,y:0},skew:{x:0,y:0},rotate:0};i[0][0]/=u,i[0][1]/=u;var o=r[0]*r[3]-r[1]*r[2]<0;o&&(u=-u);var a=i[0][0]*i[1][0]+i[0][1]*i[1][1];i[1][0]-=i[0][0]*a,i[1][1]-=i[0][1]*a;var l=D(i[1][0]*i[1][0]+i[1][1]*i[1][1]);if(0===l)return{origin:{x:r[4],y:r[5]},translate:{x:t,y:n},scale:{x:u,y:0},skew:{x:0,y:0},rotate:0};i[1][0]/=l,i[1][1]/=l,a/=l;var f=0;return i[1][1]<0?(f=z(i[1][1])*V,i[0][1]<0&&(f=360-f)):f=L(i[0][1])*V,o&&(f=-f),a=R(a,D(i[0][0]*i[0][0]+i[0][1]*i[0][1]))*V,{origin:{x:r[4],y:r[5]},translate:{x:t,y:n},scale:{x:u,y:l},skew:{x:a,y:0},rotate:f}}},{key:"toString",value:function(){return null===this.s&&(this.s="matrix("+this.m.map($).join(" ")+")"),this.s}},{key:"determinant",get:function(){var t=this.m;return t[0]*t[3]-t[1]*t[2]}},{key:"isIdentity",get:function(){if(null===this.i){var t=this.m;this.i=1===t[0]&&0===t[1]&&0===t[2]&&1===t[3]&&0===t[4]&&0===t[5]}return this.i}}]),t}(),G=/\.0+$/;function $(t){return Number.isInteger(t)?t:t.toFixed(14).replace(G,"")}Object.freeze({M:2,L:2,Z:0,H:1,V:1,C:6,Q:4,T:2,S:4,A:7});function H(t,n,r){return t+(n-t)*r}function Q(t,n,r){var e=arguments.length>3&&void 0!==arguments[3]&&arguments[3],i={x:H(t.x,n.x,r),y:H(t.y,n.y,r)};return e&&(i.a=function(t,n){return Math.atan2(n.y-t.y,n.x-t.x)}(t,n)),i}function U(t,n,r,e){var i=1-e;return i*i*t+2*i*e*n+e*e*r}function Y(t,n,r,e){return 2*(1-e)*(n-t)+2*e*(r-n)}function Z(t,n,r,e){var i=arguments.length>4&&void 0!==arguments[4]&&arguments[4],u={x:U(t.x,n.x,r.x,e),y:U(t.y,n.y,r.y,e)};return i&&(u.a=function(t,n,r,e){return Math.atan2(Y(t.y,n.y,r.y,e),Y(t.x,n.x,r.x,e))}(t,n,r,e)),u}function J(t,n,r,e,i){var u=i*i;return i*u*(e-t+3*(n-r))+3*u*(t+r-2*n)+3*i*(n-t)+t}function K(t,n,r,e,i){var u=1-i;return 3*(u*u*(n-t)+2*u*i*(r-n)+i*i*(e-r))}function W(t,n,r,e,i){var u=arguments.length>5&&void 0!==arguments[5]&&arguments[5],o={x:J(t.x,n.x,r.x,e.x,i),y:J(t.y,n.y,r.y,e.y,i)};return u&&(o.a=function(t,n,r,e,i){return Math.atan2(K(t.y,n.y,r.y,e.y,i),K(t.x,n.x,r.x,e.x,i))}(t,n,r,e,i)),o}function X(t,n,r){var e,i=arguments.length>3&&void 0!==arguments[3]&&arguments[3];if(nt(n)){if(null!=(e=r).start&&!nt(e))return Z(n,r.start,r,t,i)}else if(nt(r)){if(n.end)return Z(n,n.end,r,t,i)}else{if(n.end)return r.start?W(n,n.end,r.start,r,t,i):Z(n,n.end,r,t,i);if(r.start)return Z(n,r.start,r,t,i)}return Q(n,r,t,i)}function tt(t,n,r){var e=X(t,n,r,!0);return e.a=function(t){return arguments.length>1&&void 0!==arguments[1]&&arguments[1]?t+Math.PI:t}(e.a)/h,e}function nt(t){return!t.type||"corner"===t.type}var rt=new N;var et={f:function(t){return t?t.join(" "):""},i:function(n,r,e){if(0===n)return r;if(1===n)return e;var i=r.length;if(i!==e.length)return y(n,r,e);for(var u,o=new Array(i),a=0;a<i;a++){if((u=t(r[a]))!==t(e[a]))return y(n,r,e);if("number"===u)o[a]=d(n,r[a],e[a]);else{if(r[a]!==e[a])return y(n,r,e);o[a]=r[a]}}return o}},it={f:null,i:x,u:function(t,n){return function(r){var e=n(r);t.setAttribute("x1",I(e[0])),t.setAttribute("y1",I(e[1])),t.setAttribute("x2",I(e[2])),t.setAttribute("y2",I(e[3]))}}},ut={f:I,i:d},ot={f:I,i:function(t,n,r){var e=d(t,n,r);return e<=0?0:e>=1?1:e}},at={f:E,i:function(t,n,r){var e,i,u,o=n.length,a=r.length;if(o!==a)if(0===o)n=k(o=a,0);else if(0===a)a=o,r=k(o,0);else{var l=(u=(e=o)*(i=a)/function(t,n){for(var r;n;)r=n,n=t%n,t=r;return t||1}(e,i))<0?-u:u;n=S(n,Math.floor(l/o)),r=S(r,Math.floor(l/a)),o=a=l}for(var f=[],s=0;s<o;s++)f.push(v(g(t,n[s],r[s]),6));return f}};function lt(t,n,r,e,i,u,o,a){return n=function(t,n,r){for(var e,i,u,o=t.length-1,a={},l=0;l<=o;l++)(e=t[l]).e&&(e.e=n(e.e)),e.v&&"g"===(i=e.v).t&&i.r&&(u=r.getElementById(i.r))&&(a[i.r]=u.querySelectorAll("stop"));return a}(t,e,a),function(e){var i,u=r(e,t,ft);return u?"c"===u.t?B(u.v):"g"===u.t?(n[u.r]&&function(t,n){for(var r=0,e=t.length;r<e;r++)t[r].setAttribute("stop-color",B(n[r]))}(n[u.r],u.v),(i=u.r)?"url(#"+i+")":"none"):"none":"none"}}function ft(t,n,r){if(0===t)return n;if(1===t)return r;if(n&&r){var e=n.t;if(e===r.t)switch(n.t){case"c":return{t:e,v:w(t,n.v,r.v)};case"g":if(n.r===r.r)return{t:e,v:A(t,n.v,r.v),r:n.r}}}return y(t,n,r)}var st={blur:p,brightness:g,contrast:g,"drop-shadow":function(t,n,r){return 0===t?n:1===t?r:{blur:p(t,n.blur,r.blur),offset:m(t,n.offset,r.offset),color:w(t,n.color,r.color)}},grayscale:g,"hue-rotate":d,invert:g,opacity:g,saturate:g,sepia:g};function ct(t,n,r){if(0===t)return n;if(1===t)return r;var e=n.length;if(e!==r.length)return y(t,n,r);for(var i,u=[],o=0;o<e;o++){if(n[o].type!==r[o].type)return n;if(!(i=st[n[o].type]))return y(t,n,r);u.push({type:n.type,value:i(t,n[o].value,r[o].value)})}return u}var vt={blur:function(t){return t?function(n){t.setAttribute("stdDeviation",F(n))}:null},brightness:function(t,n,r){return(t=yt(r,n))?function(n){n=I(n),t.map((function(t){return t.setAttribute("slope",n)}))}:null},contrast:function(t,n,r){return(t=yt(r,n))?function(n){var r=I((1-n)/2);n=I(n),t.map((function(t){t.setAttribute("slope",n),t.setAttribute("intercept",r)}))}:null},"drop-shadow":function(t,n,r){var e=r.getElementById(n+"-blur");if(!e)return null;var i=r.getElementById(n+"-offset");if(!i)return null;var u=r.getElementById(n+"-flood");return u?function(t){e.setAttribute("stdDeviation",F(t.blur)),i.setAttribute("dx",I(t.offset.x)),i.setAttribute("dy",I(t.offset.y)),u.setAttribute("flood-color",B(t.color))}:null},grayscale:function(t){return t?function(n){t.setAttribute("values",E(function(t){return[.2126+.7874*(t=1-t),.7152-.7152*t,.0722-.0722*t,0,0,.2126-.2126*t,.7152+.2848*t,.0722-.0722*t,0,0,.2126-.2126*t,.7152-.7152*t,.0722+.9278*t,0,0,0,0,0,1,0]}(n)))}:null},"hue-rotate":function(t){return t?function(n){return t.setAttribute("values",I(n))}:null},invert:function(t,n,r){return(t=yt(r,n))?function(n){n=I(n)+" "+I(1-n),t.map((function(t){return t.setAttribute("tableValues",n)}))}:null},opacity:function(t,n,r){return(t=r.getElementById(n+"-A"))?function(n){return t.setAttribute("tableValues","0 "+I(n))}:null},saturate:function(t){return t?function(n){return t.setAttribute("values",I(n))}:null},sepia:function(t){return t?function(n){return t.setAttribute("values",E(function(t){return[.393+.607*(t=1-t),.769-.769*t,.189-.189*t,0,0,.349-.349*t,.686+.314*t,.168-.168*t,0,0,.272-.272*t,.534-.534*t,.131+.869*t,0,0,0,0,0,1,0]}(n)))}:null}};var ht=["R","G","B"];function yt(t,n){var r=ht.map((function(r){return t.getElementById(n+"-"+r)||null}));return-1!==r.indexOf(null)?null:r}var dt={fill:lt,"fill-opacity":ot,stroke:lt,"stroke-opacity":ot,"stroke-width":ut,"stroke-dashoffset":{f:I,i:d},"stroke-dasharray":at,opacity:ot,transform:function(n,r,e,i){if(!(n=function(n,r){if(!n||"object"!==t(n))return null;var e=!1;for(var i in n)n.hasOwnProperty(i)&&(n[i]&&n[i].length?(n[i].forEach((function(t){t.e&&(t.e=r(t.e))})),e=!0):delete n[i]);return e?n:null}(n,i)))return null;var u=function(t,i,u){var o=arguments.length>3&&void 0!==arguments[3]?arguments[3]:null;return n[t]?e(i,n[t],u):r&&r[t]?r[t]:o};return r&&r.a&&n.o?function(t){var r=e(t,n.o,tt);return rt.recomposeSelf(r,u("r",t,d,0)+r.a,u("k",t,m),u("s",t,m),u("t",t,m)).toString()}:function(t){return rt.recomposeSelf(u("o",t,X,null),u("r",t,d,0),u("k",t,m),u("s",t,m),u("t",t,m)).toString()}},"#filter":function(t,n,r,e,i,u,o,a){if(!n.items||!t||!t.length)return null;var l=function(t,n){var r=(t=t.map((function(t){return t&&vt[t[0]]?(n.getElementById(t[1]),vt[t[0]](n.getElementById(t[1]),t[1],n)):null}))).length;return function(n){for(var e=0;e<r;e++)t[e]&&t[e](n[e].value)}}(n.items,a);return l?(t=function(t,n){return t.map((function(t){return t.e=n(t.e),t}))}(t,e),function(n){l(r(n,t,ct))}):null},"#line":it,points:{f:E,i:x},d:et,r:ut,"#size":q,"#radius":j,_:function(t,n){if(Array.isArray(t))for(var r=0;r<t.length;r++)this[t[r]]=n;else this[t]=n}},gt=function(){function t(r){n(this,t),this.list=r,this.length=r.length}return e(t,[{key:"setAttribute",value:function(t,n){for(var r=this.list,e=0;e<this.length;e++)r[e].setAttribute(t,n)}},{key:"removeAttribute",value:function(t){for(var n=this.list,r=0;r<this.length;r++)n[r].removeAttribute(t)}},{key:"style",value:function(t,n){for(var r=this.list,e=0;e<this.length;e++)r[e].style[t]=n}}]),t}(),mt=/-./g,pt=function(t,n){return n.toUpperCase()};function bt(t){return"function"==typeof t?t:y}function wt(t){return t?"function"==typeof t?t:Array.isArray(t)?function(t){var n=arguments.length>1&&void 0!==arguments[1]?arguments[1]:o;if(!Array.isArray(t))return n;switch(t.length){case 1:return c(t[0])||n;case 2:return c(t[0],t[1])||n;case 4:return l(t[0],t[1],t[2],t[3])||n}return n}(t,null):function(t,n){var r=arguments.length>2&&void 0!==arguments[2]?arguments[2]:o;switch(t){case"linear":return o;case"steps":return c(n.steps||1,n.jump||0)||r;case"bezier":case"cubic-bezier":return l(n.x1||0,n.y1||0,n.x2||0,n.y2||0)||r}return r}(t.type,t.value,null):null}function At(t,n,r){var e=arguments.length>3&&void 0!==arguments[3]&&arguments[3],i=n.length-1;if(t<=n[0].t)return e?[0,0,n[0].v]:n[0].v;if(t>=n[i].t)return e?[i,1,n[i].v]:n[i].v;var u,o=n[0],a=null;for(u=1;u<=i;u++){if(!(t>n[u].t)){a=n[u];break}o=n[u]}return null==a?e?[i,1,n[i].v]:n[i].v:o.t===a.t?e?[u,1,a.v]:a.v:(t=(t-o.t)/(a.t-o.t),o.e&&(t=o.e(t)),e?[u,t,r(t,o.v,a.v)]:r(t,o.v,a.v))}function xt(t,n){var r=arguments.length>2&&void 0!==arguments[2]?arguments[2]:null;return t&&t.length?"function"!=typeof n?null:("function"!=typeof r&&(r=null),function(e){var i=At(e,t,n);return null!=i&&r&&(i=r(i)),i}):null}function kt(t,n){return t.t-n.t}function St(n,r,e,i,u){var o,a="@"===e[0],l="#"===e[0],f=dt[e],s=y;switch(a?(o=e.substr(1),e=o.replace(mt,pt)):l&&(e=e.substr(1)),t(f)){case"function":if(s=f(i,u,At,wt,e,a,r,n),l)return s;break;case"string":s=xt(i,bt(f));break;case"object":if((s=xt(i,bt(f.i),f.f))&&"function"==typeof f.u)return f.u(r,s,e,a,n)}return s?function(t,n,r){if(arguments.length>3&&void 0!==arguments[3]&&arguments[3])return t instanceof gt?function(e){return t.style(n,r(e))}:function(e){return t.style[n]=r(e)};if(Array.isArray(n)){var e=n.length;return function(i){var u=r(i);if(null==u)for(var o=0;o<e;o++)t[o].removeAttribute(n);else for(var a=0;a<e;a++)t[a].setAttribute(n,u)}}return function(e){var i=r(e);null==i?t.removeAttribute(n):t.setAttribute(n,i)}}(r,e,s,a):null}function _t(n,r,e,i){if(!i||"object"!==t(i))return null;var u=null,o=null;return Array.isArray(i)?o=function(t){if(!t||!t.length)return null;for(var n=0;n<t.length;n++)t[n].e&&(t[n].e=wt(t[n].e));return t.sort(kt)}(i):(o=i.keys,u=i.data||null),o?St(n,r,e,o,u):null}function Mt(t,n,r){if(!r)return null;var e=[];for(var i in r)if(r.hasOwnProperty(i)){var u=_t(t,n,i,r[i]);u&&e.push(u)}return e.length?e:null}function It(t,n){if(!n.duration||n.duration<0)return null;var r=function(t,n){if(!n)return null;var r=[];if(Array.isArray(n))for(var e=n.length,i=0;i<e;i++){var u=n[i];if(2===u.length){var o=null;if("string"==typeof u[0])o=t.getElementById(u[0]);else if(Array.isArray(u[0])){o=[];for(var a=0;a<u[0].length;a++)if("string"==typeof u[0][a]){var l=t.getElementById(u[0][a]);l&&o.push(l)}o=o.length?1===o.length?o[0]:new gt(o):null}if(o){var f=Mt(t,o,u[1]);f&&(r=r.concat(f))}}}else for(var s in n)if(n.hasOwnProperty(s)){var c=t.getElementById(s);if(c){var v=Mt(t,c,n[s]);v&&(r=r.concat(v))}}return r.length?r:null}(t,n.elements);return r?function(t,n){var r=arguments.length>2&&void 0!==arguments[2]?arguments[2]:1/0,e=arguments.length>3&&void 0!==arguments[3]?arguments[3]:1,i=arguments.length>4&&void 0!==arguments[4]&&arguments[4],u=arguments.length>5&&void 0!==arguments[5]?arguments[5]:1,o=t.length,a=e>0?n:0;i&&r%2==0&&(a=n-a);var l=null;return function(f,s){var c=f%n,v=1+(f-c)/n;s*=e,i&&v%2==0&&(s=-s);var h=!1;if(v>r)c=a,h=!0,-1===u&&(c=e>0?0:n);else if(s<0&&(c=n-c),c===l)return!1;l=c;for(var y=0;y<o;y++)t[y](c);return h}}(r,n.duration,n.iterations||1/0,n.direction||1,!!n.alternate,n.fill||1):null}var Et=function(){function t(r){var e=arguments.length>1&&void 0!==arguments[1]?arguments[1]:{};n(this,t),this._id=0,this._running=!1,this._animations=r,this.direction=e.direction||1,this.speed=e.speed||1,this.fps=e.fps||100,this.offset=e.offset||0}return e(t,[{key:"_start",value:function(){var t=this,n=arguments.length>0&&void 0!==arguments[0]?arguments[0]:0,r=-1/0,e=null,i={},u=function u(o){t._running=!0,null==e&&(e=o);var a=Math.round((o-e+n)*t.speed),l=t.fps?1e3/t.fps:0;if(a>r+l){t.offset=a,r=a;for(var f=t._animations,s=f.length,c=0,v=0;v<s;v++)i[v]?c++:(i[v]=f[v](a,t.direction),i[v]&&c++);if(c===s)return void t._stop()}t._id=window.requestAnimationFrame(u)};this._id=window.requestAnimationFrame(u)}},{key:"_stop",value:function(){this._id&&window.cancelAnimationFrame(this._id),this._running=!1}},{key:"play",value:function(){this._running||this._start(this.offset)}},{key:"stop",value:function(){this._stop(),this.offset=0;var t=this.direction,n=this._animations;requestAnimationFrame((function(){for(var r=0;r<n.length;r++)n[r](0,t)}))}},{key:"restart",value:function(){this._stop(),this.offset=0,this._start()}},{key:"pause",value:function(){this._stop()}},{key:"reverse",value:function(){this.direction=-this.direction}}],[{key:"build",value:function(n){if(!(n=function(t){if(!t||!t.root||!Array.isArray(t.animations))return null;var n=window.document.getElementById(t.root);if(!n)return null;var r=t.animations.map((function(t){return It(n,t)})).filter((function(t){return!!t}));return r.length?{element:n,animations:r,options:t.options||void 0}:null}(n)))return null;var r=n.element,e=n.options||{},i=new t(n.animations,n.options);return function(t,n,r){var e=arguments.length>3&&void 0!==arguments[3]?arguments[3]:null;if("click"===r){return void n.addEventListener("click",(function r(){n.removeEventListener("click",r),t.play()}))}if("hover"===r)return n.addEventListener("mouseenter",(function(){return t.play()})),void n.addEventListener("mouseleave","freeze"===e?function(){return t.pause()}:function(){return t.stop()});t.play()}(i,r,e.start,e.hover),i}}]),t}();return function(){for(var t=0,n=["ms","moz","webkit","o"],r=0;r<n.length&&!window.requestAnimationFrame;++r)window.requestAnimationFrame=window[n[r]+"RequestAnimationFrame"],window.cancelAnimationFrame=window[n[r]+"CancelAnimationFrame"]||window[n[r]+"CancelRequestAnimationFrame"];window.requestAnimationFrame||(window.requestAnimationFrame=function(n){var r=Date.now(),e=Math.max(0,16-(r-t)),i=window.setTimeout((function(){n(r+e)}),e);return t=r+e,i},window.cancelAnimationFrame=window.clearTimeout)}(),Et}));
__SVGATOR_PLAYER__.build({"root":"e3hoklu3hkh11","animations":[{"duration":2000,"direction":1,"iterations":0,"fill":1,"alternate":false,"elements":{"e3hoklu3hkh110":{"transform":{"data":{"o":{"x":59.728999999999985,"y":77.542888575,"type":"corner"},"t":{"x":-59.69233818999999,"y":-77.759919975}},"keys":{"s":[{"t":0,"v":{"x":1,"y":1}},{"t":700,"v":{"x":1,"y":1}},{"t":800,"v":{"x":1,"y":0}},{"t":1000,"v":{"x":1,"y":1}},{"t":2000,"v":{"x":1,"y":1}}]}}},"e3hoklu3hkh111":{"transform":{"data":{"o":{"x":30.882303370000017,"y":77.44858429,"type":"corner"},"t":{"x":-30.882303370000017,"y":-77.44858429}},"keys":{"s":[{"t":0,"v":{"x":1,"y":1}},{"t":700,"v":{"x":1,"y":1}},{"t":800,"v":{"x":1,"y":0}},{"t":1000,"v":{"x":1,"y":1}},{"t":2000,"v":{"x":1,"y":1}}]}}},"e3hoklu3hkh141":{"transform":{"data":{"t":{"x":-130.08910540627082,"y":-271.73617292457646}},"keys":{"o":[{"t":0,"v":{"x":127.553279,"y":273.84052593,"type":"corner"}},{"t":1000,"v":{"x":127.56014277000003,"y":264.628572145,"type":"corner"}},{"t":1480,"v":{"x":127.68208008039997,"y":269.0564172918,"type":"corner"}},{"t":2000,"v":{"x":127.553279,"y":273.84052593,"type":"corner"}}],"r":[{"t":0,"v":9000,"e":[0.42,0,0.58,1]},{"t":1000,"v":9025,"e":[0.42,0,0.58,1]},{"t":2000,"v":9000,"e":[0.42,0,0.58,1]}]}}},"e3hoklu3hkh142":{"transform":{"data":{"t":{"x":-65.18719740627081,"y":-169.42211799457644}},"keys":{"o":[{"t":0,"v":{"x":65.18719740627081,"y":169.42211799457644,"type":"corner"}},{"t":1100,"v":{"x":63.91964529777292,"y":174.05584792033824,"type":"corner"}},{"t":2000,"v":{"x":65.18719740627081,"y":169.42211799457644,"type":"corner"}}],"r":[{"t":0,"v":0,"e":[0.42,0,0.58,1]},{"t":1100,"v":25,"e":[0.42,0,0.58,1]},{"t":2000,"v":0,"e":[0.42,0,0.58,1]}]}}}}}],"options":{"start":"load","hover":"freeze"}})]]></script>
<style>
path#e7ne0cpt18ag7, path#e3hoklu3hkh17 {
    fill: #fddfc8;
}
</style>
</svg>
