<?xml version="1.0" encoding="utf-8"?>
<!-- Generator: Adobe Illustrator 15.0.0, SVG Export Plug-In . SVG Version: 6.00 Build 0)  -->
<!DOCTYPE svg PUBLIC "-//W3C//DTD SVG 1.1//EN" "http://www.w3.org/Graphics/SVG/1.1/DTD/svg11.dtd">
<svg version="1.1" id="Layer_1" xmlns="http://www.w3.org/2000/svg" xmlns:xlink="http://www.w3.org/1999/xlink" x="0px" y="0px"
	 width="150px" height="32px" viewBox="0 0 150 32" enable-background="new 0 0 150 32" xml:space="preserve">
<path fill="#0B0A0B" d="M24.97,25.521c-2.477,4.507-7.633,5.115-9.014,5.279c-0.934,0.121-1.908,0.202-2.882,0.202
	c-5.684,0-8.891-1.907-10.8-3.45C1.502,26.901,1.137,26.495,0,25.154l5.44-3.41c0.122,0.122,0.69,0.771,1.259,1.218
	c1.868,1.543,4.628,2.396,7.024,2.396c0.324,0,1.298,0,2.232-0.284C16.16,25.033,19,24.222,19,22.029
	c0-2.639-3.816-2.72-6.374-3.085c-1.339-0.164-2.72-0.407-4.06-0.731c-2.07-0.527-3.979-1.3-5.4-3.006
	c-0.284-0.324-0.853-1.054-1.218-2.111c-0.122-0.405-0.366-1.339-0.366-2.518c0-0.243,0.042-1.176,0.164-1.988
	c0.325-1.827,1.097-3.289,2.477-4.588c1.42-1.339,4.222-3.004,8.932-3.004c1.747,0,5.563,0.203,9.46,2.842
	c0.975,0.65,1.543,1.137,3.167,2.558l-5.278,3.777c-1.583-1.543-2.68-2.437-4.832-3.126c-0.365-0.082-1.461-0.406-2.679-0.406
	c-2.923,0-4.263,1.706-4.263,3.045c0,0.771,0.406,1.299,0.609,1.502c0.974,1.056,2.557,1.014,5.237,1.421
	c1.625,0.244,3.208,0.568,4.792,0.934c1.015,0.203,4.709,0.934,6.171,4.426c0.203,0.527,0.569,1.624,0.569,3.086
	C26.106,21.866,26.026,23.572,24.97,25.521"/>
<path fill="#0B0A0B" d="M52.015,26.014V7.663l-6.249,22.385h-6.091l-6.21-22.385v22.385h-2.866c-1.89,0-3.422-1.807-3.422-4.035
	V1.952h10.269L42.74,21.61l5.215-19.658h10.269v28.096h-2.845C53.511,30.048,51.961,28.242,52.015,26.014"/>
<path fill="#DF132A" d="M72.119,7.663L65.63,30.048H61.89c-2.067,0-3.114-1.693-2.338-3.782l9.025-24.313H75.9l10.35,28.096h-3.742
	c-2.067,0-4.281-1.724-4.945-3.852L72.119,7.663z"/>
<path fill="#0B0A0B" d="M149.041,1.473h-38.15v5.711l8.214,0.021v18.163c0,2.226,1.356,4.165,3.311,4.165h3.673V7.204h7.628v18.217
	c0.196,2.853,2.553,5.106,5.456,5.106c3.031,0,5.488-2.458,5.488-5.489c0-0.635-0.109-1.244-0.308-1.812
	c0.02,0.107,0.028,0.218,0.028,0.33c0,1.103-0.893,1.995-1.995,1.995c-1.05,0-1.964-0.798-1.964-1.841
	c0.003-6.918,0-16.507,0-16.507h8.619V1.473z"/>
<path fill="#0B0A0B" d="M101.311,26.511l-3.641-6.51h-4.379v10.031h-3.543c-1.956,0-3.544-1.808-3.544-4.036V1.979L98.88,1.968
	c0.796,0,1.608,0.027,2.403,0.068c1.274,0.078,5.701,0.291,7.889,4.312c0.398,0.756,1.115,2.387,1.115,4.696
	c0,3.145-1.234,4.816-2.189,5.732c-0.397,0.398-0.876,0.756-1.313,1.035c-0.519,0.279-1.116,0.558-2.269,0.994l6.488,11.227h-3.86
	C105.011,30.032,102.4,28.454,101.311,26.511 M99.222,7.681h-5.971v7.105h5.812c0.277,0,1.074,0,1.87-0.278
	c2.27-0.757,2.35-2.906,2.35-3.623C103.282,7.223,100.455,7.681,99.222,7.681"/>
</svg>
