<?xml version="1.0" encoding="utf-8"?>
<!-- Generator: Adobe Illustrator 24.1.0, SVG Export Plug-In . SVG Version: 6.00 Build 0)  -->
<svg version="1.1" id="Layer_1" xmlns="http://www.w3.org/2000/svg" xmlns:xlink="http://www.w3.org/1999/xlink" x="0px" y="0px"
	 viewBox="0 0 45 40.3" style="enable-background:new 0 0 45 40.3;" xml:space="preserve">
<style type="text/css">
	.st0{fill:#163BD0;}
</style>
<g id="noun_Moon_3257229" transform="translate(-3 -4)">
	<path id="Path_14" class="st0" d="M22.9,35.4h-5.1c-0.4,0-0.6-0.3-0.6-0.6c0-0.4,0.3-0.6,0.6-0.6h5.1c0.4,0,0.6,0.3,0.6,0.6
		C23.5,35.1,23.2,35.4,22.9,35.4z M15.9,35.4h-0.6c-0.4,0-0.6-0.3-0.6-0.6c0-0.4,0.3-0.6,0.6-0.6l0,0h0.6c0.4,0,0.6,0.3,0.6,0.6
		C16.5,35.1,16.2,35.4,15.9,35.4z M12.7,35.4h-1.9c-0.1,0-0.2,0-0.3-0.1c-0.1,0.1-0.2,0.1-0.3,0.1H7.6c-0.4,0-0.6-0.3-0.6-0.6
		c0-0.4,0.3-0.6,0.6-0.6l0,0h2.5c0.1,0,0.2,0,0.3,0.1c0.1-0.1,0.2-0.1,0.3-0.1h1.9c0.4,0,0.6,0.3,0.6,0.6
		C13.4,35.1,13.1,35.4,12.7,35.4L12.7,35.4z"/>
	<path id="Path_15" class="st0" d="M43,22.4c-1.2,6.3-7.2,10.4-13.5,9.3c-6.3-1.2-10.4-7.2-9.3-13.5c0.9-4.7,4.6-8.4,9.3-9.3
		c-0.8-0.1-1.7-0.2-2.5-0.2C18.1,8.8,10.8,16,10.8,25c0,2.8,0.7,5.5,2.1,7.9c0.4,0,0.8,0.2,1.1,0.5c0.4-0.3,0.8-0.5,1.3-0.5h0.6
		c0.3,0,0.7,0.1,1,0.3c0.3-0.2,0.6-0.3,1-0.3h5.1c1.1,0,1.9,0.9,1.9,1.9c0,0.2,0,0.4-0.1,0.6h2.7c1.1,0,1.9,0.9,1.9,1.9
		c0,1.1-0.9,1.9-1.9,1.9h-5.1c-0.3,0-0.7-0.1-1-0.3c-0.3,0.2-0.6,0.3-1,0.3h-0.6c-0.1,0-0.3,0-0.4-0.1c7.9,4.3,17.7,1.3,21.9-6.5
		c1.3-2.4,2-5,2-7.7C43.2,24.1,43.1,23.3,43,22.4L43,22.4z"/>
	<path id="Path_16" class="st0" d="M27.3,38h-5.1c-0.4,0-0.6-0.3-0.6-0.6c0-0.4,0.3-0.6,0.6-0.6h5.1c0.4,0,0.6,0.3,0.6,0.6
		C27.9,37.7,27.7,38,27.3,38z M20.3,38h-0.6c-0.4,0-0.6-0.3-0.6-0.6c0-0.4,0.3-0.6,0.6-0.6h0.6c0.4,0,0.6,0.3,0.6,0.6
		C21,37.7,20.7,38,20.3,38z M17.2,38h-1.9c-0.1,0-0.2,0-0.3-0.1c-0.1,0.1-0.2,0.1-0.3,0.1h-2.5c-0.4,0-0.6-0.3-0.6-0.6
		c0-0.4,0.3-0.6,0.6-0.6l0,0h2.5c0.1,0,0.2,0,0.3,0.1c0.1-0.1,0.2-0.1,0.3-0.1h1.9c0.4,0,0.6,0.3,0.6,0.6C17.8,37.7,17.5,38,17.2,38
		L17.2,38z"/>
</g>
</svg>
