<svg id="noun_Question_1679760" xmlns="http://www.w3.org/2000/svg" width="7.964" height="12.103" viewBox="0 0 7.964 12.103">
  <g id="Group_8" data-name="Group 8" transform="translate(0 0)">
    <path id="Path_13" data-name="Path 13" d="M0,3.176c0-4.257,7.965-4.532,7.965-.137,0,2.609-2.609,2.472-3.158,4.944a.971.971,0,1,1-1.922-.275c0-2.334,1.922-2.472,2.746-3.982a1.568,1.568,0,0,0-1.511-2.2c-2.334,0-1.511,2.609-3.021,2.609A1.061,1.061,0,0,1,0,3.176Zm3.845,8.788a1.237,1.237,0,0,1,0-2.472A1.236,1.236,0,0,1,3.845,11.965Z" transform="translate(0 0.138)" fill="#fff" fill-rule="evenodd"/>
  </g>
</svg>
