<?xml version="1.0" encoding="utf-8"?>
<!-- Generator: Adobe Illustrator 24.1.0, SVG Export Plug-In . SVG Version: 6.00 Build 0)  -->
<svg version="1.1" id="Layer_1" xmlns="http://www.w3.org/2000/svg" xmlns:xlink="http://www.w3.org/1999/xlink" x="0px" y="0px"
	 viewBox="0 0 45 40.3" style="enable-background:new 0 0 45 40.3;" xml:space="preserve">
<style type="text/css">
	.st0{fill:#7E98FF;}
</style>
<g id="noun_sun_1749433" transform="translate(-4.15 -19.225)">
	<path id="Path_18" class="st0" d="M28.1,34.8v-7.5c0-0.6-0.5-1.1-1.1-1.1c-0.6,0-1.1,0.5-1.1,1.1v7.5c0,0.6,0.5,1.1,1.1,1.1
		C27.6,35.9,28.1,35.4,28.1,34.8L28.1,34.8z"/>
	<path id="Path_19" class="st0" d="M5,48.4c0,0.6,0.5,1.1,1.1,1.1h0h7.4c0.6,0,1.1-0.5,1.1-1.1c0-0.6-0.5-1.1-1.1-1.1l0,0H6.1
		C5.5,47.2,5,47.7,5,48.4C5,48.4,5,48.4,5,48.4z"/>
	<path id="Path_20" class="st0" d="M39.3,48.4c0,0.6,0.5,1.1,1.1,1.1h7.4c0.6,0,1.1-0.5,1.1-1.1c0-0.6-0.5-1.1-1.1-1.1h-7.4
		C39.8,47.2,39.3,47.7,39.3,48.4C39.3,48.4,39.3,48.4,39.3,48.4z"/>
	<path id="Path_21" class="st0" d="M18.3,39.5c0.4-0.4,0.4-1.1,0-1.6c0,0,0,0,0,0L13,32.6c-0.4-0.4-1.1-0.4-1.6,0
		c-0.4,0.4-0.4,1.1,0,1.6l5.3,5.3C17.1,40,17.8,40,18.3,39.5C18.3,39.5,18.3,39.5,18.3,39.5z"/>
	<path id="Path_22" class="st0" d="M41,32.6L35.7,38c-0.4,0.4-0.4,1.1,0,1.6c0.4,0.4,1.1,0.4,1.6,0l5.3-5.3c0.4-0.4,0.4-1.1,0-1.6
		C42.1,32.2,41.4,32.2,41,32.6L41,32.6z"/>
	<path id="Path_23" class="st0" d="M17.6,51c6.2-1,12.5-1,18.7-0.1c3.9,0.6,7.8,1.7,11.4,3.3v-0.5c-3.6-1.6-7.4-2.7-11.3-3.3
		c1.3-5.3-1.9-10.7-7.1-12c-5.2-1.3-10.5,1.9-11.9,7.2c-0.4,1.6-0.4,3.3,0,4.8c-3.9,0.6-7.7,1.7-11.3,3.4
		C9.9,52.7,13.7,51.7,17.6,51z"/>
</g>
</svg>
