<svg xmlns="http://www.w3.org/2000/svg" width="41.393" height="22.46" viewBox="0 0 41.393 22.46">
  <g id="noun_Video_2524743" transform="translate(1170.696 -286.77)">
    <g id="Group_4" data-name="Group 4" transform="translate(-1177.46 268.463)">
      <g id="Group_3" data-name="Group 3" transform="translate(6.764 18.307)">
        <path id="Path_5" data-name="Path 5" d="M51.674,20.585a4.036,4.036,0,0,0-2.51,1.034l-5.587,4.526a4.5,4.5,0,0,0,0,7.21l5.587,4.525a4.032,4.032,0,0,0,2.51,1.035h0a2.535,2.535,0,0,0,2.14-1.139,4.214,4.214,0,0,0,.639-2.418V24.142C54.454,21.517,52.957,20.585,51.674,20.585Zm.273,14.773c0,.732-.194,1.017-.238,1.046a.124.124,0,0,1-.034,0,1.675,1.675,0,0,1-.932-.476l-5.587-4.525a2.006,2.006,0,0,1,0-3.314l5.587-4.525a1.641,1.641,0,0,1,.956-.474h.007c.048.031.242.316.242,1.048V35.358Z" transform="translate(-13.062 -18.717)" fill="#fff"/>
        <path id="Path_6" data-name="Path 6" d="M29.171,40.767A5.439,5.439,0,0,0,34.6,35.333V23.74a5.439,5.439,0,0,0-5.433-5.433H25.022v2.508h4.149A2.929,2.929,0,0,1,32.1,23.74V35.333a2.929,2.929,0,0,1-2.925,2.925H12.2a2.929,2.929,0,0,1-2.925-2.925V23.74A2.929,2.929,0,0,1,12.2,20.815h9.481V18.307H12.2A5.439,5.439,0,0,0,6.764,23.74V35.333A5.439,5.439,0,0,0,12.2,40.767Z" transform="translate(-6.764 -18.307)" fill="#fff"/>
        <path id="Path_7" data-name="Path 7" d="M13.523,31.848A1.254,1.254,0,0,0,14.777,33.1H29.023a1.254,1.254,0,1,0,0-2.508H14.777A1.254,1.254,0,0,0,13.523,31.848Z" transform="translate(-7.98 -20.517)" fill="#fff"/>
      </g>
    </g>
  </g>
</svg>
